# xmcd
#
# Track frame offsets:
#	150
#	17659
#	30573
#	45375
#	63927
#	80370
#	97361
#	117088
#	129762
#	143738
#	161834
#	180180
#	198703
#	215300
#	231452
#	244481
#	259008
#	274372
#	296680
#	316127
#	327942
#
# Disc length: 4563 seconds
#
# Revision: 1
# Processed by: cddbd v1.5.2PL0 Copyright (c) Steve Scherf et al.
# Submitted via: audiograbber 1.83.01
#
DISCID=3011d115
DTITLE=Mastermix - Pro Disc 113 - November 2009
DYEAR=2009
DGENRE=Pop
TTITLE0=Lily Allen - Who'd Have Known
TTITLE1=Alphabeat - The Spell (Digital Dog Radio Edit)
TTITLE2=Arctic Monkeys - Cornerstone
TTITLE3=Bon Jovi - We Weren't Born To Follow
TTITLE4=Mariah Carey - I Want To Know What Love Is
TTITLE5=Chicane - Hiding All The Stars
TTITLE6=Dizzee Rascal - Dirtee Cash
TTITLE7=Florence and The Machine - You've Got The Love
TTITLE8=Sean Kingston - Face Drop
TTITLE9=Leona Lewis - Happy
TTITLE10=Little Boots - Earthquake
TTITLE11=Pixie Lott - Cry Me Out
TTITLE12=Daniel Merriweather Ft Adele - Water And A Flame
TTITLE13=Mika - Blame It On The Girls
TTITLE14=MSTRKRFT Ft N.O.R.E. - Bounce
TTITLE15=Shakira - Did It Again
TTITLE16=Britney Spears - 3
TTITLE17=Taylor Swift - Fifteen
TTITLE18=Tiesto Ft CC Sheffield - Escape Me
TTITLE19=Armand Van Helden and A-Trak Present Duck Sauce - aNYway
TTITLE20=Laura White - U Should Have Known
EXTD=
EXTT0=
EXTT1=
EXTT2=
EXTT3=
EXTT4=
EXTT5=
EXTT6=
EXTT7=
EXTT8=
EXTT9=
EXTT10=
EXTT11=
EXTT12=
EXTT13=
EXTT14=
EXTT15=
EXTT16=
EXTT17=
EXTT18=
EXTT19=
EXTT20=
PLAYORDER=
